PathFileType	4	(X/Y/Z)	7_coords_data.trc
DataRate	CameraRate	NumFrames	NumMarkers	Units	OrigDataRate	OrigDataStartFrame	OrigNumFrames
30.0	30.0	6	21	m	30.0	47	56
Frame#	Time	THUMB_TIP	THUMB_IP	THUMB_MCP	THUMB_CMC	INDEX_TIP	INDEX_DIP	INDEX_PIP	INDEX_MCP	MIDDLE_TIP	MIDDLE_DIP	MIDDLE_PIP	MIDDLE_MCP	RING_TIP	RING_DIP	RING_PIP	RING_MCP	PINKY_TIP	PINKY_DIP	PINKY_PIP	PINKY_MCP	WRIST
X1	Y1	Z1	X2	Y2	Z2	X3	Y3	Z3	X4	Y4	Z4	X5	Y5	Z5	X6	Y6	Z6	X7	Y7	Z7	X8	Y8	Z8	X9	Y9	Z9	X10	Y10	Z10	X11	Y11	Z11	X12	Y12	Z12	X13	Y13	Z13	X14	Y14	Z14	X15	Y15	Z15	X16	Y16	Z16	X17	Y17	Z17	X18	Y18	Z18	X19	Y19	Z19	X20	Y20	Z20	X21	Y21	Z21
46	1.5333333333333334	-0.04403570175170898	-0.08244229888916016	0.9892680053710937	-0.051911998748779296	-0.06556569671630859	1.0085399780273439	-0.06405819702148438	-0.052083900451660156	1.032050048828125	-0.0633661994934082	-0.02297380065917969	1.049530029296875	-0.021807600021362304	-0.047714099884033204	0.93368701171875	-0.040629100799560544	-0.042268600463867184	0.9435540161132813	-0.05815560150146484	-0.037163101196289065	0.9572630004882813	-0.073606201171875	-0.030678699493408203	0.99085498046875	-0.007411610126495361	-0.022712200164794923	0.9212550048828125	-0.025716800689697266	-0.016885700225830077	0.9342550048828125	-0.047148998260498044	-0.01168019962310791	0.9520079956054688	-0.06861019897460938	-0.007603610038757324	0.9864829711914063	0.00019797100126743304	-0.006921080112457276	0.9357639770507813	-0.016616800308227538	0.0005407069921493531	0.9474390258789063	-0.035658401489257814	0.00716064977645874	0.9621370239257813	-0.056765899658203126	0.009556639671325683	0.9912069702148437	0.007238900184631348	0.019100000381469726	0.9681380004882812	-0.008658639907836914	0.022677099227905274	0.9767360229492188	-0.023596799850463868	0.02426449966430664	0.9855009765625	-0.04346879959106445	0.022721200942993163	1.0031099853515626	-0.07553359985351563	0.007050340175628662	1.062199951171875
47	1.5666666666666667	-0.04463520050048828	-0.08089330291748047	0.9863709716796875	-0.052707298278808594	-0.06566639709472656	1.00672998046875	-0.06397829818725585	-0.053493301391601564	1.0315400390625	-0.06303200149536133	-0.024739299774169922	1.04922998046875	-0.02705120086669922	-0.05391949844360352	0.937343017578125	-0.04629010009765625	-0.04806179809570312	0.9458380126953125	-0.06420989990234376	-0.04241809844970703	0.9585070190429688	-0.07919200134277343	-0.03476789855957031	0.9921270141601563	-0.010922800064086914	-0.033827301025390624	0.9275390014648438	-0.03003289985656738	-0.026172500610351562	0.93739501953125	-0.052553199768066404	-0.018671100616455077	0.9525390014648437	-0.07515329742431641	-0.011612899780273437	0.9869329833984375	-0.003106909990310669	-0.01856800079345703	0.942114990234375	-0.020600400924682617	-0.008900349617004394	0.9497009887695312	-0.04082830047607422	0.000287737011909484	0.9612670288085937	-0.0636175994873047	0.0057770700454711915	0.9907009887695313	0.002600490093231201	0.0058130202293396	0.9715770263671875	-0.013273099899291992	0.013164400100708008	0.9761110229492187	-0.02873349952697754	0.01795159912109375	0.98272802734375	-0.04971739959716797	0.020060600280761717	0.9999739990234375	-0.07535549926757812	0.005058340072631836	1.0618499755859374
48	1.6	-0.045606700897216794	-0.08068810272216796	0.9840449829101563	-0.05355059814453125	-0.06649980163574219	1.0051900024414062	-0.06385929870605468	-0.055277198791503904	1.03097998046875	-0.06306079864501953	-0.02691699981689453	1.048780029296875	-0.030311500549316406	-0.0595703010559082	0.9410980224609375	-0.049927501678466796	-0.05369459915161133	0.9482459716796875	-0.06827040100097656	-0.047677501678466794	0.9598510131835938	-0.08322219848632813	-0.03900189971923828	0.993239013671875	-0.01330620002746582	-0.042662399291992184	0.9339559936523437	-0.03282740020751953	-0.03403310012817383	0.9410750122070313	-0.056292598724365234	-0.025219499588012697	0.953698974609375	-0.07974569702148437	-0.016038000106811525	0.9872360229492188	-0.005632870197296143	-0.026741300582885742	0.9477620239257812	-0.02343440055847168	-0.01620919990539551	0.9521610107421875	-0.04449079895019531	-0.005655940055847168	0.961333984375	-0.06814630126953125	0.001733590006828308	0.9899619750976563	-0.0017021100521087643	-0.002479330062866211	0.9742769775390625	-0.017054100036621094	0.006362339973449707	0.9761690063476562	-0.03273160171508789	0.012645400047302247	0.9810250244140625	-0.054059600830078124	0.01668829917907715	0.998	-0.07565280151367187	0.002762540102005005	1.0613299560546876
49	1.6333333333333333	-0.04676499938964844	-0.08132630157470704	0.98277099609375	-0.054480701446533206	-0.0680198974609375	1.0044299926757811	-0.0638838005065918	-0.05726580047607422	1.03081005859375	-0.06298419952392578	-0.02927090072631836	1.0485999755859374	-0.03134709930419922	-0.06435659790039062	0.944426025390625	-0.05129610061645508	-0.058461700439453125	0.9505999755859375	-0.07008429718017578	-0.052310699462890624	0.9612930297851563	-0.08557559967041016	-0.0428223991394043	0.9941920166015625	-0.01382919979095459	-0.04908549880981445	0.9393280029296875	-0.033720298767089846	-0.04009609985351562	0.944489990234375	-0.05784180068969726	-0.030627199172973633	0.9551259765625	-0.08210440063476562	-0.020011699676513672	0.9873469848632812	-0.00683549976348877	-0.032888500213623044	0.9524320068359375	-0.0246737003326416	-0.021902099609375	0.9546079711914063	-0.04623360061645508	-0.010761400222778321	0.9617410278320313	-0.07079470062255859	-0.002079960107803344	0.9899119873046875	-0.003839560031890869	-0.009178099632263183	0.9778800048828125	-0.01873110008239746	0.00037140899896621703	0.977426025390625	-0.03454280090332031	0.007658470153808594	0.9807000122070313	-0.056613700866699215	0.01334589958190918	0.9970130004882812	-0.07561879730224609	0.000404352992773056	1.061030029296875
50	1.6666666666666667	-0.04700339889526367	-0.08248940277099609	0.9824550170898437	-0.05442419815063477	-0.06962200164794922	1.0041199951171875	-0.06347560119628906	-0.05906840133666992	1.03068994140625	-0.06250529861450195	-0.03104949951171875	1.0484100341796876	-0.030831499099731444	-0.06754409790039062	0.9472630004882813	-0.050992698669433595	-0.06182770156860352	0.952655029296875	-0.0701885986328125	-0.05571530151367188	0.96264501953125	-0.08640480041503906	-0.04576869964599609	0.9951259765625	-0.013094699859619141	-0.05314879989624023	0.9441010131835937	-0.03312990188598633	-0.04418960189819336	0.9474229736328125	-0.05789870071411133	-0.03455020141601563	0.9563839721679688	-0.08322530364990234	-0.023015100479125975	0.9879929809570313	-0.006185840129852295	-0.03695869827270508	0.9572589721679687	-0.024107700347900392	-0.026083200454711915	0.9577169799804688	-0.046262100219726564	-0.014590999603271485	0.9628079833984375	-0.07199590301513673	-0.004946619987487793	0.9898369750976562	-0.004526480197906494	-0.013983599662780762	0.9822680053710937	-0.019083799362182616	-0.004174769878387451	0.9800900268554688	-0.034906501770019534	0.003773250102996826	0.9814650268554688	-0.05782460021972656	0.010787300109863281	0.99635400390625	-0.0752406005859375	-0.0012451499700546261	1.0606199951171875
51	1.7	-0.045747299194335934	-0.08304969787597656	0.9825029907226562	-0.05324560165405273	-0.07039900207519531	1.0042999877929688	-0.062069698333740236	-0.059695598602294925	1.030780029296875	-0.061685501098632814	-0.03154019927978516	1.0482900390625	-0.02894409942626953	-0.06872440338134765	0.9492239990234375	-0.049385299682617186	-0.06340240097045899	0.9539080200195312	-0.06892649841308594	-0.057566600799560545	0.9633900146484375	-0.08589520263671875	-0.04743119812011719	0.9954089965820313	-0.011299400329589844	-0.054754798889160156	0.9473419799804688	-0.03156049919128418	-0.04600730133056641	0.9495029907226562	-0.056844799041748044	-0.03664310073852539	0.9571320190429687	-0.08300579833984376	-0.024827999114990236	0.988030029296875	-0.0049567298889160154	-0.038211799621582034	0.960739990234375	-0.022978099822998047	-0.027692399978637695	0.9596290283203125	-0.04556719970703125	-0.016350299835205077	0.9635369873046875	-0.07204499816894532	-0.006483729839324951	0.98947900390625	-0.004554309844970703	-0.015750800132751465	0.9852429809570312	-0.01883810043334961	-0.005997340202331543	0.9818679809570312	-0.03477090072631836	0.0020688400268554677	0.9819539794921875	-0.05832279968261719	0.009683380126953125	0.99572998046875	-0.07455699920654296	-0.001931149959564209	1.0604100341796876
